<?xml version="1.0" encoding="UTF-8" standalone="no"?>
<svg
   version="1.1"
   id="Layer_1"
   x="0px"
   y="0px"
   width="100%"
   viewBox="0 0 448 430"
   enable-background="new 0 0 448 430"
   xml:space="preserve"
   sodipodi:docname="Screenshot 2026-07-09 225721.svg"
   inkscape:version="1.4.3 (0d15f75, 2025-12-25)"
   xmlns:inkscape="http://www.inkscape.org/namespaces/inkscape"
   xmlns:sodipodi="http://sodipodi.sourceforge.net/DTD/sodipodi-0.dtd"
   xmlns="http://www.w3.org/2000/svg"
   xmlns:svg="http://www.w3.org/2000/svg"><defs
   id="defs25" /><sodipodi:namedview
   id="namedview25"
   pagecolor="#ffffff"
   bordercolor="#000000"
   borderopacity="0.25"
   inkscape:showpageshadow="2"
   inkscape:pageopacity="0.0"
   inkscape:pagecheckerboard="0"
   inkscape:deskcolor="#d1d1d1"
   inkscape:zoom="1.8906977"
   inkscape:cx="224.25584"
   inkscape:cy="215"
   inkscape:window-width="1920"
   inkscape:window-height="1094"
   inkscape:window-x="-11"
   inkscape:window-y="-11"
   inkscape:window-maximized="1"
   inkscape:current-layer="Layer_1" />

<path
   fill="#020202"
   opacity="1"
   stroke="none"
   d="m 13.240835,219.99988 c -0.0035,-44.15552 -0.120763,-87.8114 0.02282,-131.466433 C 13.396111,48.262695 38.722927,15.7752 77.148621,6.659149 83.395401,5.177173 89.995178,4.606544 96.433464,4.595599 181.91142,4.450295 267.38992,4.353246 352.86777,4.516563 c 47.53387,0.090821 83.23184,36.258763 83.22574,83.747719 -0.0109,84.645098 0.0178,169.290218 -0.0615,253.935268 -0.0348,37.1843 -23.79889,68.93174 -59.51657,78.98035 -7.41696,2.0867 -15.40939,2.95453 -23.13998,2.97299 -85.31113,0.20368 -170.63176,-0.59845 -255.930734,0.44022 -41.673291,0.50748 -84.649945,-33.1294 -84.226614,-84.12515 0.33194,-39.98664 0.03837,-79.97852 0.02269,-120.46808 M 279.41892,39.071587 C 200.93767,18.673498 133.33951,37.39764 78.0924,96.816559 51.041569,125.91005 36.380047,161.29869 34.221348,201.13238 c -2.887751,53.28647 15.138294,99.06525 53.466114,135.93168 45.974848,44.22189 101.216928,62.92398 164.693028,53.9793 46.43778,-6.54373 84.97312,-28.7521 116.47968,-63.259 47.13492,-51.62362 58.35431,-127.89088 27.40784,-190.49514 C 371.87949,87.951561 332.21066,56.167252 279.41892,39.071587 Z"
   id="path2" />

<path
   fill="#111111"
   opacity="1"
   stroke="none"
   d="m 390.99664,243.94501 c -5.34857,28.22363 -16.64334,53.31787 -34.11352,75.58508 -22.85883,29.13544 -53.4813,46.39456 -88.70099,55.11227 -58.46506,14.4715 -111.82176,2.29285 -158.56893,-35.46795 C 85.13575,319.40231 70.20459,292.5571 61.119385,262.65259 31.397703,164.82187 92.975166,63.230244 193.33389,44.212936 283.05795,27.210825 372.21551,87.69326 390.04105,177.54959 c 4.35656,21.96089 5.23886,43.90962 0.95559,66.39542 M 228.67351,278.9809 c 3.49704,0.002 7.04748,-0.37159 10.47525,0.11654 3.07683,0.4382 6.0188,1.82346 9.02026,2.79093 -0.15182,0.62539 -0.30363,1.25082 -0.45544,1.87622 -6.87151,0 -13.74301,0 -20.58937,0 0,19.00094 0,37.40847 0,55.93841 19.71133,0 39.1275,0 59.0946,0 0,-11.44674 0,-22.66498 0,-34.17822 1.8244,0.12091 3.0781,0.20398 4.85578,0.32181 0,11.48944 0,22.6998 0,34.09152 4.53033,0 8.51623,6e-5 12.5021,3e-5 25.48291,-2.1e-4 25.48325,3e-5 42.24875,-19.41397 0.43448,-0.50314 0.93417,-0.97925 1.24405,-1.55389 0.45773,-0.84903 1.09259,-1.77305 1.09887,-2.66901 0.0755,-10.76697 0.0488,-21.53461 0.0488,-32.92639 -6.51065,0 -12.47232,0 -18.85748,0 5.34113,-6.88166 12.55597,-3.20407 18.58972,-4.7583 1.35806,-5.76367 -2.32281,-12.87598 5.30988,-17.43564 0,6.28805 0,12.00699 0,17.80188 5.53741,0 10.55636,0.26157 15.51989,-0.14832 1.63727,-0.13519 4.07309,-1.69748 4.54041,-3.13019 3.44028,-10.54678 6.95361,-21.11372 9.48105,-31.89994 1.94107,-8.28391 2.4787,-16.89669 3.66934,-25.57372 -3.4162,-0.17924 -5.69174,-0.29863 -8.32217,-0.43664 0.12466,-1.67855 0.22647,-3.04964 0.33639,-4.52962 2.66068,-0.12062 4.91574,-0.22286 7.11087,-0.32237 1.13956,-14.80307 -4.34942,-45.5929 -10.32907,-57.84679 -0.47641,-0.97633 -1.73221,-2.20007 -2.65854,-2.2281 -6.42389,-0.19439 -12.85647,-0.10251 -19.81045,-0.10251 0,5.73971 0,10.89953 0,16.14078 -6.65833,-4.04943 -3.62241,-10.72165 -4.95835,-15.94272 -5.77102,-0.92093 -12.31131,1.86473 -16.64407,-5.22217 6.03656,0 11.45508,0 16.98846,0 0,-12.79125 0.0453,-25.11895 -0.0646,-37.44527 -0.012,-1.34848 -0.65543,-2.87226 -1.44916,-4.00385 -5.73355,-8.173874 -12.60529,-12.980591 -23.66241,-11.663697 -10.45853,1.24559 -21.18189,0.267616 -32.25321,0.267616 0,10.372371 0,20.127401 0,29.870561 -1.74945,0 -3.02261,0 -4.7669,0 0,-9.95935 0,-19.70463 0,-29.521516 -20.03568,0 -39.59583,0 -58.88001,0 0,17.739826 0,35.136656 0,53.033626 6.57413,0 12.74147,0 19.10803,0 -5.27467,7.32828 -12.96759,3.09627 -19.16003,4.85997 -1.46938,6.07683 2.20395,13.2448 -4.98722,18.50179 0,-6.66158 0,-12.68829 0,-19.1161 -11.63227,0 -22.70614,0 -33.76947,0 -0.27323,-3.63228 1.14974,-4.66071 4.3565,-4.59977 9.76376,0.1855 19.53331,0.0673 29.39167,0.0673 0,-17.94402 0,-35.2429 0,-51.285332 -2.55488,-2.378601 -4.40777,-4.10363 -7.25383,-6.753319 3.40204,0 5.18485,0 7.07079,0 0,-13.653954 0,-27.047531 0,-40.736427 -18.94411,0.381816 -36.96613,3.70494 -54.32217,10.440204 -1.06284,0.412449 -2.34115,2.014523 -2.36387,3.087551 -0.18942,8.945885 -0.10754,17.897507 -0.10754,27.316674 6.46648,0 12.50223,0 18.62582,0 -1.08514,5.094146 -4.5684,4.988174 -8.17227,4.867164 -3.41742,-0.114738 -6.8417,-0.02467 -10.48968,-0.02467 0,9.380195 0,18.018145 0,26.872915 -1.58399,0.32531 -2.97071,0.61011 -4.97162,1.02104 0,-9.50061 0,-18.56956 0,-27.894077 -15.85716,0 -31.16681,-0.02127 -46.47606,0.04617 -1.06103,0.0047 -2.38223,0.382972 -3.13529,1.074486 -4.39018,4.031391 -8.51515,7.878971 -7.66505,15.054151 0.83731,7.06709 0.18357,14.31085 0.18382,21.47708 1.9e-4,5.09255 3e-5,10.18511 3e-5,15.7197 8.72264,0 16.73065,0 24.73866,0 0.0754,0.59457 0.15076,1.18915 0.22614,1.78372 -7.28775,6.02788 -16.76965,0.46292 -24.62371,3.28993 0,19.91339 0,39.81154 0,59.48456 19.1018,0 37.85842,0 56.85014,0 0,-10.48686 0.21914,-20.63968 -0.10413,-30.77521 -0.13591,-4.26172 1.52333,-7.02961 5.18691,-10.20271 0,14.28031 0,27.67525 0,41.40068 11.41639,0 22.36718,0 33.42883,0 0,1.71748 0,3.08896 0,4.99646 -11.34612,0 -22.41177,0 -33.77184,0 0,10.96297 0,21.38729 0,31.9082 -3.55148,-0.21901 -4.86403,-1.72337 -4.79155,-5.10788 0.191,-8.91752 0.0646,-17.84184 0.0646,-26.7948 -19.38227,0 -38.13523,0 -56.91373,0 0,20.30945 0,40.37293 0,60.8808 5.38235,0 10.47201,0 15.7735,0 -0.1052,1.72089 -0.18229,2.98224 -0.2871,4.69675 -5.35066,0 -10.42882,0 -15.76785,0 0,12.2774 -0.0253,24.08301 0.0426,35.88806 0.006,1.07535 0.2921,2.45123 0.98419,3.17475 8.86142,9.26364 16.79661,20.31448 32.32673,17.10046 2.07736,-0.4299 4.32081,-0.0567 6.48735,-0.0566 5.74543,3.7e-4 11.49087,1.2e-4 17.35472,1.2e-4 0,-3.90338 0,-7.05838 0,-10.23642 7.19825,0.43927 4.07866,6.23371 5.19786,9.89447 18.96135,0 37.83346,0 56.52891,0 0,-18.77289 0,-37.20065 0,-55.40002 -12.56242,-2.37433 -25.80731,3.27533 -38.39407,-5.34305 13.51282,0 25.9216,0 38.785,0 0,-6.91937 0,-13.44934 0,-19.97934 0.55837,-0.12628 1.11672,-0.25259 1.67508,-0.37888 0.92784,2.92792 2.18358,5.79926 2.7012,8.79801 0.65896,3.81732 0.7204,7.73782 2.00576,11.68436 M 261.5,90.038689 c 8.09299,0 16.18597,0 24.49103,0 0,-8.626839 -0.16107,-16.604782 0.0809,-24.570488 0.0941,-3.09692 -1.08517,-4.527008 -3.84949,-5.317921 -9.09082,-2.601025 -18.03943,-5.853386 -27.2675,-7.776741 -9.13994,-1.90498 -18.55252,-2.501911 -28.03851,-3.696888 0,14.4534 0,27.705872 0,41.362038 11.33952,0 22.46153,0 34.58354,0 M 98.10703,169.50101 c 0,-5.56273 0,-11.12548 0,-16.76244 -7.932614,0 -15.08273,-0.13657 -22.218709,0.12009 -1.358696,0.0488 -3.40107,1.36241 -3.879166,2.58201 -7.206108,18.38246 -10.373874,37.50862 -10.296436,57.32367 12.290623,0 24.289814,0 36.394261,0 0,-14.34846 0,-28.30595 5e-5,-43.26333 m 9.3e-4,56.05203 c 0,-2.42918 0,-4.85837 0,-7.21475 -12.451298,0 -24.331265,0 -36.291031,0 0.238151,20.15542 4.760967,39.06329 12.287357,57.30716 0.533936,1.29428 1.933846,3.12011 2.994576,3.164 6.904091,0.28564 13.825729,0.1467 21.009228,0.1467 0,-17.87861 0,-35.14824 -1.3e-4,-53.40311 M 231.50085,376.0517 c 17.59934,-0.78363 34.55411,-4.57886 50.89267,-11.09342 1.42713,-0.56906 3.42987,-2.06726 3.50766,-3.2435 0.36982,-5.59237 0.16544,-11.22271 0.16544,-17.09445 -19.87576,0 -39.27025,0 -59.17642,0 0,9.80997 -0.0908,19.42056 0.15883,29.02231 0.0218,0.83966 2.27977,1.62115 4.45182,2.40906 m -57.88781,-31.69101 c -2.76282,0 -5.52565,0 -8.53931,0 0,2.7088 4.6e-4,4.69534 -6e-5,6.68191 -0.004,14.58313 -0.0181,14.63404 14.17274,18.63825 13.90281,3.92294 27.99282,6.63153 42.57314,6.40619 0,-10.76822 0,-21.11179 0,-31.72593 -16.0054,0 -31.62048,0 -48.20651,-4.2e-4 M 120.33206,90.038506 c 13.24295,0 26.48589,0 39.465,0 0,-9.435296 0,-18.143845 0,-28.607953 -11.06104,6.717305 -21.15497,12.683629 -31.06013,18.948414 -3.63328,2.297966 -6.82766,5.292862 -10.15825,8.047234 -0.0748,0.06188 0.61888,1.053116 1.75338,1.612305 m 196.15125,0.0048 c 4.37777,0 8.75558,0 14.221,0 C 318.19049,78.9076 305.39386,70.634911 291.24298,64.088852 c 0,8.964889 0,17.35408 0,25.954529 8.31006,0 16.27823,0 25.24033,-9.2e-5 M 98.11755,144.34991 c 0,-11.21408 0,-22.42815 0,-35.03933 -9.681164,12.66951 -17.462254,24.73082 -23.112164,38.68641 7.210785,0 13.695084,0.11495 20.166726,-0.11964 1.010856,-0.0366 1.964035,-1.6646 2.945438,-3.52744 m 256.2006,-28.36354 c -0.11466,-0.12051 -0.21384,-0.26408 -0.34876,-0.35431 -0.11075,-0.0741 -0.26388,-0.0848 -0.39828,-0.12357 -0.20874,1.37192 -0.59058,2.74286 -0.59836,4.11591 -0.0532,9.39716 -0.0279,18.79474 -0.0279,28.03762 6.81378,0 12.84457,0 20.4866,0 -6.57727,-11.01245 -12.58335,-21.06855 -19.11331,-31.67565 M 85.638985,283.7262 c -2.413597,0 -4.827202,0 -8.804131,0 7.095207,11.263 13.490578,21.41507 19.885956,31.56714 0.36187,-0.24091 0.723732,-0.48182 1.085602,-0.72272 0,-10.2081 0,-20.41617 0,-30.84424 -3.936356,0 -7.573143,0 -12.167427,-1.8e-4 m 45.423575,62.72686 c 9.33209,5.53354 18.66417,11.06708 28.80283,17.07889 0,-7.40842 0,-13.10879 0,-19.20828 -9.77904,0 -19.22203,-0.0128 -28.66414,0.0713 -0.24398,0.002 -0.47849,1.06451 -0.13869,2.05804 m 162.36508,13.68906 c 8.34043,-4.7796 16.68088,-9.55923 25.0213,-14.33884 -0.22302,-0.39575 -0.44607,-0.79153 -0.66909,-1.18728 -8.8479,0 -17.69581,0 -26.92505,0 0,5.0802 -0.0476,9.86923 0.0808,14.65356 0.0116,0.43231 1.15725,0.83423 2.49206,0.87256 m 62.52353,-52.67606 c 4.65177,-7.57275 9.30356,-15.14553 14.4292,-23.48968 -6.51993,0 -11.72766,0 -17.0369,0 0,8.95297 0,17.72119 0,27.0545 1.00806,-1.36917 1.59681,-2.16882 2.6077,-3.56482 z"
   id="path4" />










<path
   fill="#fcfcfc"
   opacity="1"
   stroke="none"
   d="m 86.117737,283.72629 c 4.115532,9e-5 7.752319,9e-5 11.688675,9e-5 0,10.42807 0,20.63614 0,30.84424 -0.36187,0.2409 -0.723732,0.48181 -1.085602,0.72272 -6.395378,-10.15207 -12.790749,-20.30414 -19.885956,-31.56714 3.976929,0 6.390534,0 9.282883,9e-5 z"
   id="path15" />



<path
   fill="#0f0f0f"
   opacity="1"
   stroke="none"
   d="m 282.25736,144.25551 c 1.33044,-0.73966 2.68698,-1.29543 2.96884,-2.18988 0.4299,-1.36415 0.12701,-2.96262 0.11633,-4.46144 -0.0173,-2.42286 0.0528,-5.36121 3.25552,-4.82703 1.32395,0.22083 2.54572,3.12193 3.14203,5.01564 0.52384,1.66348 0.10947,3.62242 0.10947,5.60919 40.11133,5.40845 62.05307,28.67382 67.69824,68.66493 2.16223,0 4.73572,-0.42948 7.0564,0.15133 1.54126,0.38574 2.72094,2.21615 4.0625,3.3999 -1.29602,1.04619 -2.46384,2.69137 -3.91721,3.00242 -2.3598,0.50504 -4.90665,0.13613 -7.70144,0.13613 -1.16858,18.24879 -7.87076,33.80694 -20.54157,46.61165 -12.57422,12.70706 -27.86563,19.6123 -46.49292,20.94235 0,2.53876 0.41016,5.2139 -0.15027,7.66733 -0.34918,1.52853 -2.16537,2.72192 -3.32321,4.0657 -1.02664,-1.30365 -2.64215,-2.48419 -2.94623,-3.93887 -0.49527,-2.3692 -0.13367,-4.91751 -0.13367,-7.79953 -18.37448,-1.15003 -33.87342,-8.11801 -46.46838,-20.97775 -12.44093,-12.70255 -19.41862,-28.01925 -20.41098,-46.56017 -2.5522,0 -5.07521,0.41887 -7.35582,-0.14415 -1.57542,-0.38895 -2.8159,-2.13472 -4.20605,-3.27417 1.42968,-1.11873 2.71351,-2.80035 4.32492,-3.21788 2.15678,-0.55887 4.56736,-0.13831 6.79725,-0.13831 9.21564,-43.15149 27.12969,-62.13371 64.11625,-67.73739 m 4.13064,121.68272 c 3.68451,-2.31415 5.29913,-0.50222 5.5571,3.05853 0.24597,3.39567 0.053,6.82312 0.053,10.22431 31.20004,-0.18951 60.9187,-30.33576 59.82568,-60.53449 -3.2438,0 -6.57709,0.33519 -9.7872,-0.14798 -1.50064,-0.22584 -2.76321,-2.03372 -4.13367,-3.12455 1.39316,-1.10974 2.67493,-2.94413 4.20258,-3.17893 3.21692,-0.49441 6.56271,-0.15028 9.85773,-0.15028 -0.69321,-35.95261 -33.14167,-61.90083 -60.07413,-60.76949 0,3.11154 0.32391,6.29308 -0.1344,9.35761 -0.23499,1.57112 -1.86798,2.93313 -2.86917,4.38966 -1.16306,-1.48897 -3.03943,-2.85004 -3.33435,-4.49469 -0.54254,-3.02565 -0.15485,-6.21812 -0.15485,-9.31152 -28.30851,-0.68303 -59.71382,26.3822 -59.81329,60.80524 3.31343,0 6.68249,-0.34737 9.92114,0.15168 1.53833,0.23706 2.8279,2.08841 4.23016,3.20845 -1.40231,1.07816 -2.70422,2.87491 -4.22746,3.08779 -3.37233,0.47128 -6.85589,0.14671 -10.31674,0.14671 1.66324,32.66885 31.92943,62.84827 59.94002,60.25818 0.25772,-4.0788 0.51718,-8.18509 1.25781,-12.97623 z"
   id="path19" />
<path
   fill="#030303"
   opacity="1"
   stroke="none"
   d="m 155.61832,305.40411 c -1.31603,-0.96774 -2.69355,-2.02255 -4.02628,-1.96872 -12.86606,0.51993 -23.95103,-8.19259 -25.61732,-20.33111 -1.89837,-13.82926 5.9235,-25.59497 18.99157,-28.56723 14.35182,-3.26421 28.58892,7.7583 29.08721,22.59741 0.0826,2.45996 -0.24836,4.93381 -0.40006,7.61057 0.53906,0.12048 1.15555,0.34741 1.78349,0.38546 12.46993,0.75556 20.71842,9.20423 20.60369,21.12912 -0.10677,11.0951 -8.87502,20.26496 -19.69672,20.59885 -11.32341,0.34939 -19.9729,-8.40869 -20.72558,-21.45435 z"
   id="path20" />
<path
   fill="#040404"
   opacity="1"
   stroke="none"
   d="m 131.91293,156.23245 c 3.09732,-3.86638 6.12502,-7.34257 9.2585,-10.94021 -4.62041,-2.23903 -7.68022,-6.3219 -6.26964,-12.64978 0.93341,-4.18729 3.83802,-6.66824 7.80384,-7.48817 5.87683,-1.21503 9.82965,1.72964 12.27931,7.14915 7.78828,-4.4823 15.10335,-4.77019 21.72658,1.50053 5.29329,5.01155 6.74707,12.65517 3.65208,19.28239 -3.84793,8.23954 -10.72009,10.83391 -19.29324,9.78042 -5.67409,11.33792 -12.22003,14.99575 -20.68724,11.62486 -7.13355,-2.83998 -10.62784,-10.15155 -8.47019,-18.25919 z"
   id="path21" />
<path
   fill="#050505"
   opacity="1"
   stroke="none"
   d="m 212.23862,112.94774 c -3.94176,5.56489 -9.0369,8.12978 -15.31995,6.59712 -5.88136,-1.43467 -9.93886,-5.30681 -11.05022,-11.56129 -1.08455,-6.10363 0.72582,-11.200207 5.81794,-14.896068 5.02163,-3.644692 12.26619,-3.349709 17.21109,0.573783 5.59626,4.440323 6.87448,11.271855 3.34114,19.286455 z"
   id="path22" />
<path
   fill="#080808"
   opacity="1"
   stroke="none"
   d="m 192.22328,270.51532 c -6.74113,2.45212 -11.98765,0.90372 -15.00917,-4.11423 -2.62509,-4.35959 -1.78129,-10.65501 1.90004,-14.17613 3.81593,-3.64986 9.3396,-4.24925 13.73958,-1.49092 7.06764,4.43063 6.91899,13.6525 -0.63045,19.78128 z"
   id="path23" />
<path
   fill="#fcfcfc"
   opacity="1"
   stroke="none"
   d="m 286.14743,266.28064 c -0.50006,4.44873 -0.75952,8.55502 -1.01724,12.63382 -28.01059,2.59009 -58.27678,-27.58933 -59.94002,-60.25818 3.46085,0 6.94441,0.32457 10.31674,-0.14671 1.52324,-0.21288 2.82515,-2.00963 4.22746,-3.08779 -1.40226,-1.12004 -2.69183,-2.97139 -4.23016,-3.20845 -3.23865,-0.49905 -6.60771,-0.15168 -9.92114,-0.15168 0.0995,-34.42304 31.50478,-61.48827 59.81329,-60.80524 0,3.0934 -0.38769,6.28587 0.15485,9.31152 0.29492,1.64465 2.17129,3.00572 3.33435,4.49469 1.00119,-1.45653 2.63418,-2.81854 2.86917,-4.38966 0.45831,-3.06453 0.1344,-6.24607 0.1344,-9.35761 26.93246,-1.13134 59.38092,24.81688 60.07413,60.76949 -3.29502,0 -6.64081,-0.34413 -9.85773,0.15028 -1.52765,0.2348 -2.80942,2.06919 -4.20258,3.17891 1.37046,1.09085 2.63303,2.89873 4.13367,3.12457 3.21011,0.48317 6.5434,0.14798 9.7872,0.14798 1.09302,30.19873 -28.62564,60.34498 -59.82568,60.53449 0,-3.40119 0.19293,-6.82864 -0.053,-10.22431 -0.25797,-3.56075 -1.87259,-5.37268 -5.79767,-2.71612 m 35.66779,-44.51082 c 1.32367,-6.80669 -1.17267,-12.36595 -5.82007,-17.08723 6.26736,-6.84565 7.6347,-13.06499 4.46658,-19.70386 -2.61752,-5.48499 -8.35452,-9.04004 -14.11472,-8.44043 -8.83428,0.9196 -13.28842,6.42618 -14.61761,14.99139 -11.28119,-10.41252 -22.72003,-10.98848 -30.82291,-1.7971 -8.45839,9.59463 -6.27542,21.97858 5.59677,31.75008 -9.23696,2.41735 -13.71221,7.41604 -13.85798,15.47885 -0.12522,6.92546 3.68028,12.64004 9.80205,14.71943 7.56466,2.56954 13.50558,-0.24922 19.65445,-9.32531 8.16555,5.57571 11.87033,5.61578 18.59558,0.20115 6.88165,5.92519 11.85241,6.70717 16.70489,2.62792 4.77942,-4.01784 4.93112,-9.32439 0.60657,-17.14684 1.21786,-1.89473 2.37369,-3.69295 3.8064,-6.26805 z"
   id="path24" />
<path
   fill="#030303"
   opacity="1"
   stroke="none"
   d="m 321.67679,222.15826 c -1.29428,2.18666 -2.45011,3.98488 -3.66797,5.87961 4.32455,7.82245 4.17285,13.129 -0.60657,17.14684 -4.85248,4.07925 -9.82324,3.29727 -16.70489,-2.62792 -6.72525,5.41463 -10.43003,5.37456 -18.59558,-0.20115 -6.14887,9.07609 -12.08979,11.89485 -19.65445,9.32531 -6.12177,-2.07939 -9.92727,-7.79397 -9.80205,-14.71943 0.14577,-8.06281 4.62102,-13.0615 13.85798,-15.47885 -11.87219,-9.7715 -14.05516,-22.15545 -5.59677,-31.75008 8.10288,-9.19138 19.54172,-8.61542 30.82291,1.7971 1.32919,-8.56521 5.78333,-14.07179 14.61761,-14.99139 5.7602,-0.59961 11.4972,2.95544 14.11472,8.44043 3.16812,6.63887 1.80078,12.85821 -4.46658,19.70386 4.6474,4.72128 7.14374,10.28054 5.68164,17.47567 z"
   id="path25" />
</svg>
